<?xml version="1.0" encoding="UTF-8" standalone="no"?>
<!DOCTYPE svg PUBLIC "-//W3C//DTD SVG 1.1//EN" "http://www.w3.org/Graphics/SVG/1.1/DTD/svg11.dtd">
<svg width="100%" height="100%" viewBox="0 0 1242 1242" version="1.1" xmlns="http://www.w3.org/2000/svg" xmlns:xlink="http://www.w3.org/1999/xlink" xml:space="preserve" xmlns:serif="http://www.serif.com/" style="fill-rule:evenodd;clip-rule:evenodd;stroke-linejoin:round;stroke-miterlimit:2;">
    <g transform="matrix(2.51904,0,0,2.37033,-30.7701,16.2802)">
        <g>
            <g>
                <g transform="matrix(0.410871,0,0,0.410871,12.215,8.59785)">
                    <path d="M711.045,366.525C675.17,363.438 639.302,361.834 603.343,361.745L603.346,361.745C569.98,361.662 536.53,362.885 502.926,365.424L447.34,302.497L353.247,272.115C394.907,240.718 442.652,216.209 495.919,197.946L437.044,131.295L314.451,239.591L173.483,80.004C177.839,65.802 174.984,49.751 164.429,37.801C155.915,28.162 144.13,23.124 132.217,22.886L132.219,22.888C131.423,22.871 130.625,22.876 129.834,22.903C119.943,23.234 110.107,26.88 102.112,33.94C83.839,50.082 82.111,77.979 98.252,96.252C108.947,108.358 124.796,113.155 139.594,110.349L280.363,269.705L157.762,378.007L216.632,444.646C240.216,392.639 270.798,348.548 307.724,311.636L322.93,391.268C297.758,396.559 272.442,402.567 246.964,409.294C244.203,531.328 265.213,670.894 312.506,800.793L117.446,1021.62L87.753,1177.12L238.408,1128.46L387.574,959.596C441.086,1048.55 510.512,1125.09 596.956,1177.12C679.622,1127.16 748.222,1052.13 802.412,964.376L952.329,1128.46L1102.98,1177.12L1073.29,1021.62L879.479,808.1C930.827,675.729 955.636,532.707 953.099,409.267C931.703,403.618 910.365,398.459 889.07,393.799L892.275,311.633C929.203,348.545 959.79,392.637 983.374,444.643L1042.24,378.004L919.638,269.703L1060.41,110.346C1075.2,113.153 1091.06,108.355 1101.75,96.249C1117.89,77.976 1116.16,50.079 1097.89,33.938C1089.9,26.88 1080.06,23.229 1070.17,22.9C1069.38,22.876 1068.58,22.869 1067.79,22.886L1067.79,22.888C1055.87,23.132 1044.09,28.165 1035.58,37.801C1025.02,49.751 1022.16,65.804 1026.52,80.011L885.55,239.594L762.957,131.295L704.087,197.946C757.349,216.209 805.092,240.716 846.759,272.11L752.666,302.497L711.045,366.525Z" style="fill:rgb(100,94,86);fill-rule:nonzero;stroke:rgb(249,241,220);stroke-width:21.64px;"/>
                </g>
                <g transform="matrix(1.20668,0,0,1.20668,-59.0758,-55.2661)">
                    <path d="M264.512,176.512C224.952,176.414 185.045,181.738 143.879,192.607C141.833,283.055 178.363,401.957 262.349,452.512C343.644,403.382 384.751,282.61 382.901,192.598C343.151,182.102 303.991,176.61 264.511,176.512L264.512,176.512Z" style="fill:rgb(91,29,18);fill-rule:nonzero;"/>
                    <path d="M264.511,176.512L264.512,176.512L264.511,176.512L264.511,176.512C224.952,176.414 185.045,181.738 143.879,192.607C141.833,283.055 178.363,401.957 262.349,452.512C343.644,403.382 384.751,282.61 382.901,192.598C343.151,182.102 303.991,176.61 264.511,176.512ZM264.502,199.289L264.511,199.317L264.486,199.317C296.767,199.397 328.847,203.269 361.249,210.671C358.065,286.836 325.025,380.349 262.309,425.686C197.804,379.507 167.982,287.065 165.434,210.703C199.06,203.017 231.883,199.236 264.462,199.317L264.487,199.317L264.502,199.289Z"/>
                </g>
            </g>
        </g>
    </g>
</svg>
